<?xml version="1.0" standalone="no"?>
<!DOCTYPE svg PUBLIC "-//W3C//DTD SVG 20010904//EN"
 "http://www.w3.org/TR/2001/REC-SVG-20010904/DTD/svg10.dtd">
<svg version="1.0" xmlns="http://www.w3.org/2000/svg"
 width="1024.000000pt" height="1024.000000pt" viewBox="0 0 1024.000000 1024.000000"
 preserveAspectRatio="xMidYMid meet">

<g transform="translate(0.000000,1024.000000) scale(0.100000,-0.100000)"
fill="#292929" stroke="none">
<path d="M5175 8536 c-53 -24 -139 -108 -193 -187 -50 -74 -148 -277 -181
-374 -57 -169 -73 -291 -78 -584 -4 -167 -1 -317 7 -405 13 -160 58 -442 89
-563 12 -45 21 -90 21 -100 0 -21 -82 -103 -255 -255 -448 -393 -700 -783
-781 -1208 -26 -142 -25 -391 4 -532 125 -606 594 -1071 1197 -1184 146 -28
422 -22 536 12 18 5 31 -51 71 -326 30 -207 33 -559 5 -660 -28 -106 -75 -189
-141 -256 -100 -100 -221 -145 -386 -145 -108 1 -184 18 -285 64 l-70 32 80 5
c141 10 256 87 313 208 24 50 27 69 27 157 0 87 -3 107 -26 155 -34 72 -101
140 -174 176 -54 26 -69 29 -160 29 -90 0 -106 -3 -159 -30 -76 -37 -153 -114
-191 -190 -27 -55 -30 -69 -30 -161 0 -96 1 -103 39 -179 51 -103 160 -214
261 -267 153 -80 401 -111 562 -70 125 32 189 66 269 146 81 81 131 173 165
301 27 102 37 390 20 546 -11 92 -64 420 -77 475 -4 17 2 23 38 33 64 19 214
97 288 149 141 98 285 272 365 437 209 433 124 954 -205 1258 -243 225 -589
323 -901 255 -7 -2 -16 11 -21 27 -11 42 -118 531 -118 542 0 4 10 19 23 33
200 221 421 639 532 1004 108 359 130 623 75 909 -58 301 -149 503 -293 650
-93 96 -169 117 -262 73z m263 -630 c83 -43 115 -123 116 -286 1 -242 -98
-507 -305 -815 -102 -152 -278 -371 -288 -358 -10 10 -38 195 -52 338 -16 163
-6 455 20 590 60 305 172 492 322 541 51 16 146 11 187 -10z m-369 -2395 c33
-135 60 -245 58 -245 -1 -1 -40 -20 -87 -43 -212 -105 -364 -300 -421 -538
-18 -75 -20 -109 -16 -205 12 -263 132 -480 318 -580 69 -36 193 -70 261 -70
40 0 48 3 48 18 0 14 -15 23 -61 36 -139 38 -230 110 -281 224 -39 87 -49 223
-23 322 39 150 142 278 278 345 43 21 80 36 83 33 3 -3 50 -235 105 -514 55
-280 122 -619 150 -753 38 -188 46 -247 37 -252 -29 -18 -172 -50 -261 -58
-193 -19 -406 19 -584 104 -470 222 -699 718 -573 1241 48 202 162 410 352
640 96 117 539 558 549 547 4 -5 34 -118 68 -252z m525 -691 c128 -33 200 -74
296 -170 96 -95 142 -176 182 -315 18 -66 22 -104 22 -220 -1 -172 -20 -253
-96 -405 -46 -93 -63 -116 -153 -205 -107 -107 -210 -178 -225 -155 -4 7 -11
31 -14 54 -4 22 -36 176 -71 341 -103 486 -217 1067 -211 1081 8 22 176 18
270 -6z"/>
</g>
</svg>
